<svg width="1360" height="120" viewBox="0 0 680 60" xmlns="http://www.w3.org/2000/svg">


<rect x="38" y="24" width="604" height="10" rx="5" style="fill:rgb(107, 79, 16);stroke:none;color:rgb(0, 0, 0);stroke-width:1px;stroke-linecap:butt;stroke-linejoin:miter;opacity:1;font-family:&quot;Anthropic Sans&quot;, -apple-system, BlinkMacSystemFont, &quot;Segoe UI&quot;, sans-serif;font-size:16px;font-weight:400;text-anchor:start;dominant-baseline:auto"/>

<path d="M42,25 Q72,22 102,25 Q132,28 162,25 Q192,22 222,25 Q252,28 282,25 Q312,22 322,24" fill="none" stroke="#C4943A" stroke-width="4" stroke-linecap="round" style="fill:none;stroke:rgb(196, 148, 58);color:rgb(0, 0, 0);stroke-width:4px;stroke-linecap:round;stroke-linejoin:miter;opacity:1;font-family:&quot;Anthropic Sans&quot;, -apple-system, BlinkMacSystemFont, &quot;Segoe UI&quot;, sans-serif;font-size:16px;font-weight:400;text-anchor:start;dominant-baseline:auto"/>
<path d="M358,24 Q368,22 398,25 Q428,28 458,25 Q488,22 518,25 Q548,28 578,25 Q608,22 638,25" fill="none" stroke="#C4943A" stroke-width="4" stroke-linecap="round" style="fill:none;stroke:rgb(196, 148, 58);color:rgb(0, 0, 0);stroke-width:4px;stroke-linecap:round;stroke-linejoin:miter;opacity:1;font-family:&quot;Anthropic Sans&quot;, -apple-system, BlinkMacSystemFont, &quot;Segoe UI&quot;, sans-serif;font-size:16px;font-weight:400;text-anchor:start;dominant-baseline:auto"/>

<path d="M42,29 Q72,32 102,29 Q132,26 162,29 Q192,32 222,29 Q252,26 282,29 Q312,32 322,28" fill="none" stroke="#8B6914" stroke-width="4" stroke-linecap="round" style="fill:none;stroke:rgb(139, 105, 20);color:rgb(0, 0, 0);stroke-width:4px;stroke-linecap:round;stroke-linejoin:miter;opacity:1;font-family:&quot;Anthropic Sans&quot;, -apple-system, BlinkMacSystemFont, &quot;Segoe UI&quot;, sans-serif;font-size:16px;font-weight:400;text-anchor:start;dominant-baseline:auto"/>
<path d="M358,28 Q368,32 398,29 Q428,26 458,29 Q488,32 518,29 Q548,26 578,29 Q608,32 638,29" fill="none" stroke="#8B6914" stroke-width="4" stroke-linecap="round" style="fill:none;stroke:rgb(139, 105, 20);color:rgb(0, 0, 0);stroke-width:4px;stroke-linecap:round;stroke-linejoin:miter;opacity:1;font-family:&quot;Anthropic Sans&quot;, -apple-system, BlinkMacSystemFont, &quot;Segoe UI&quot;, sans-serif;font-size:16px;font-weight:400;text-anchor:start;dominant-baseline:auto"/>

<path d="M42,33 Q72,30 102,33 Q132,36 162,33 Q192,30 222,33 Q252,36 282,33 Q312,30 322,32" fill="none" stroke="#6B4F10" stroke-width="3.5" stroke-linecap="round" style="fill:none;stroke:rgb(107, 79, 16);color:rgb(0, 0, 0);stroke-width:3.5px;stroke-linecap:round;stroke-linejoin:miter;opacity:1;font-family:&quot;Anthropic Sans&quot;, -apple-system, BlinkMacSystemFont, &quot;Segoe UI&quot;, sans-serif;font-size:16px;font-weight:400;text-anchor:start;dominant-baseline:auto"/>
<path d="M358,32 Q368,30 398,33 Q428,36 458,33 Q488,30 518,33 Q548,36 578,33 Q608,30 638,33" fill="none" stroke="#6B4F10" stroke-width="3.5" stroke-linecap="round" style="fill:none;stroke:rgb(107, 79, 16);color:rgb(0, 0, 0);stroke-width:3.5px;stroke-linecap:round;stroke-linejoin:miter;opacity:1;font-family:&quot;Anthropic Sans&quot;, -apple-system, BlinkMacSystemFont, &quot;Segoe UI&quot;, sans-serif;font-size:16px;font-weight:400;text-anchor:start;dominant-baseline:auto"/>

<path d="M40,27 Q70,24 100,27 Q130,30 160,27 Q190,24 220,27 Q250,30 280,27 Q310,24 322,26" fill="none" stroke="#4A3508" stroke-width="1" stroke-linecap="round" opacity="0.5" style="fill:none;stroke:rgb(74, 53, 8);color:rgb(0, 0, 0);stroke-width:1px;stroke-linecap:round;stroke-linejoin:miter;opacity:0.5;font-family:&quot;Anthropic Sans&quot;, -apple-system, BlinkMacSystemFont, &quot;Segoe UI&quot;, sans-serif;font-size:16px;font-weight:400;text-anchor:start;dominant-baseline:auto"/>
<path d="M358,26 Q368,30 400,27 Q430,24 460,27 Q490,30 520,27 Q550,24 580,27 Q610,30 640,27" fill="none" stroke="#4A3508" stroke-width="1" stroke-linecap="round" opacity="0.5" style="fill:none;stroke:rgb(74, 53, 8);color:rgb(0, 0, 0);stroke-width:1px;stroke-linecap:round;stroke-linejoin:miter;opacity:0.5;font-family:&quot;Anthropic Sans&quot;, -apple-system, BlinkMacSystemFont, &quot;Segoe UI&quot;, sans-serif;font-size:16px;font-weight:400;text-anchor:start;dominant-baseline:auto"/>

<g style="fill:rgb(0, 0, 0);stroke:none;color:rgb(0, 0, 0);stroke-width:1px;stroke-linecap:butt;stroke-linejoin:miter;opacity:1;font-family:&quot;Anthropic Sans&quot;, -apple-system, BlinkMacSystemFont, &quot;Segoe UI&quot;, sans-serif;font-size:16px;font-weight:400;text-anchor:start;dominant-baseline:auto">
<ellipse cx="340" cy="29" rx="22" ry="12" style="fill:rgb(107, 79, 16);stroke:none;color:rgb(0, 0, 0);stroke-width:1px;stroke-linecap:butt;stroke-linejoin:miter;opacity:1;font-family:&quot;Anthropic Sans&quot;, -apple-system, BlinkMacSystemFont, &quot;Segoe UI&quot;, sans-serif;font-size:16px;font-weight:400;text-anchor:start;dominant-baseline:auto"/>
<ellipse cx="340" cy="28" rx="18" ry="10" style="fill:rgb(139, 105, 20);stroke:none;color:rgb(0, 0, 0);stroke-width:1px;stroke-linecap:butt;stroke-linejoin:miter;opacity:1;font-family:&quot;Anthropic Sans&quot;, -apple-system, BlinkMacSystemFont, &quot;Segoe UI&quot;, sans-serif;font-size:16px;font-weight:400;text-anchor:start;dominant-baseline:auto"/>
<path d="M326,24 Q330,20 340,22 Q350,24 346,28 Q342,32 336,30 Q330,28 326,24Z" opacity="0.7" style="fill:rgb(196, 148, 58);stroke:none;color:rgb(0, 0, 0);stroke-width:1px;stroke-linecap:butt;stroke-linejoin:miter;opacity:0.7;font-family:&quot;Anthropic Sans&quot;, -apple-system, BlinkMacSystemFont, &quot;Segoe UI&quot;, sans-serif;font-size:16px;font-weight:400;text-anchor:start;dominant-baseline:auto"/>
<path d="M354,26 Q352,22 344,24 Q338,26 340,30 Q342,34 348,32 Q354,30 354,26Z" opacity="0.5" style="fill:rgb(196, 148, 58);stroke:none;color:rgb(0, 0, 0);stroke-width:1px;stroke-linecap:butt;stroke-linejoin:miter;opacity:0.5;font-family:&quot;Anthropic Sans&quot;, -apple-system, BlinkMacSystemFont, &quot;Segoe UI&quot;, sans-serif;font-size:16px;font-weight:400;text-anchor:start;dominant-baseline:auto"/>
<path d="M332,28 Q336,24 340,26 Q344,28 340,30 Q336,32 332,28Z" opacity="0.9" style="fill:rgb(196, 148, 58);stroke:none;color:rgb(0, 0, 0);stroke-width:1px;stroke-linecap:butt;stroke-linejoin:miter;opacity:0.9;font-family:&quot;Anthropic Sans&quot;, -apple-system, BlinkMacSystemFont, &quot;Segoe UI&quot;, sans-serif;font-size:16px;font-weight:400;text-anchor:start;dominant-baseline:auto"/>
<ellipse cx="340" cy="28" rx="18" ry="10" fill="none" stroke="#4A3508" stroke-width="0.8" opacity="0.4" style="fill:none;stroke:rgb(74, 53, 8);color:rgb(0, 0, 0);stroke-width:0.8px;stroke-linecap:butt;stroke-linejoin:miter;opacity:0.4;font-family:&quot;Anthropic Sans&quot;, -apple-system, BlinkMacSystemFont, &quot;Segoe UI&quot;, sans-serif;font-size:16px;font-weight:400;text-anchor:start;dominant-baseline:auto"/>
<path d="M324,28 Q328,22 334,24" fill="none" stroke="#4A3508" stroke-width="1" opacity="0.6" style="fill:none;stroke:rgb(74, 53, 8);color:rgb(0, 0, 0);stroke-width:1px;stroke-linecap:butt;stroke-linejoin:miter;opacity:0.6;font-family:&quot;Anthropic Sans&quot;, -apple-system, BlinkMacSystemFont, &quot;Segoe UI&quot;, sans-serif;font-size:16px;font-weight:400;text-anchor:start;dominant-baseline:auto"/>
<path d="M356,28 Q352,22 346,24" fill="none" stroke="#4A3508" stroke-width="1" opacity="0.6" style="fill:none;stroke:rgb(74, 53, 8);color:rgb(0, 0, 0);stroke-width:1px;stroke-linecap:butt;stroke-linejoin:miter;opacity:0.6;font-family:&quot;Anthropic Sans&quot;, -apple-system, BlinkMacSystemFont, &quot;Segoe UI&quot;, sans-serif;font-size:16px;font-weight:400;text-anchor:start;dominant-baseline:auto"/>
<path d="M330,34 Q334,30 340,32 Q346,30 350,34" fill="none" stroke="#4A3508" stroke-width="0.8" opacity="0.4" style="fill:none;stroke:rgb(74, 53, 8);color:rgb(0, 0, 0);stroke-width:0.8px;stroke-linecap:butt;stroke-linejoin:miter;opacity:0.4;font-family:&quot;Anthropic Sans&quot;, -apple-system, BlinkMacSystemFont, &quot;Segoe UI&quot;, sans-serif;font-size:16px;font-weight:400;text-anchor:start;dominant-baseline:auto"/>
</g>

<line x1="40" y1="26" x2="32" y2="22" stroke-width="1.2" style="fill:none;stroke:rgb(107, 79, 16);color:rgb(0, 0, 0);stroke-width:0.8px;stroke-linecap:butt;stroke-linejoin:miter;opacity:1;font-family:&quot;Anthropic Sans&quot;, -apple-system, BlinkMacSystemFont, &quot;Segoe UI&quot;, sans-serif;font-size:16px;font-weight:400;text-anchor:start;dominant-baseline:auto"/>
<line x1="40" y1="29" x2="30" y2="28" stroke-width="1" style="fill:none;stroke:rgb(107, 79, 16);color:rgb(0, 0, 0);stroke-width:0.8px;stroke-linecap:butt;stroke-linejoin:miter;opacity:1;font-family:&quot;Anthropic Sans&quot;, -apple-system, BlinkMacSystemFont, &quot;Segoe UI&quot;, sans-serif;font-size:16px;font-weight:400;text-anchor:start;dominant-baseline:auto"/>
<line x1="40" y1="32" x2="31" y2="35" stroke-width="1.1" style="fill:none;stroke:rgb(107, 79, 16);color:rgb(0, 0, 0);stroke-width:0.8px;stroke-linecap:butt;stroke-linejoin:miter;opacity:1;font-family:&quot;Anthropic Sans&quot;, -apple-system, BlinkMacSystemFont, &quot;Segoe UI&quot;, sans-serif;font-size:16px;font-weight:400;text-anchor:start;dominant-baseline:auto"/>
<line x1="40" y1="28" x2="34" y2="19" stroke-width="0.7" style="fill:none;stroke:rgb(107, 79, 16);color:rgb(0, 0, 0);stroke-width:0.8px;stroke-linecap:butt;stroke-linejoin:miter;opacity:1;font-family:&quot;Anthropic Sans&quot;, -apple-system, BlinkMacSystemFont, &quot;Segoe UI&quot;, sans-serif;font-size:16px;font-weight:400;text-anchor:start;dominant-baseline:auto"/>
<line x1="40" y1="31" x2="28" y2="33" stroke-width="0.6" style="fill:none;stroke:rgb(107, 79, 16);color:rgb(0, 0, 0);stroke-width:0.8px;stroke-linecap:butt;stroke-linejoin:miter;opacity:1;font-family:&quot;Anthropic Sans&quot;, -apple-system, BlinkMacSystemFont, &quot;Segoe UI&quot;, sans-serif;font-size:16px;font-weight:400;text-anchor:start;dominant-baseline:auto"/>

<line x1="640" y1="26" x2="648" y2="21" stroke-width="1.2" style="fill:none;stroke:rgb(107, 79, 16);color:rgb(0, 0, 0);stroke-width:0.8px;stroke-linecap:butt;stroke-linejoin:miter;opacity:1;font-family:&quot;Anthropic Sans&quot;, -apple-system, BlinkMacSystemFont, &quot;Segoe UI&quot;, sans-serif;font-size:16px;font-weight:400;text-anchor:start;dominant-baseline:auto"/>
<line x1="640" y1="29" x2="650" y2="29" stroke-width="1" style="fill:none;stroke:rgb(107, 79, 16);color:rgb(0, 0, 0);stroke-width:0.8px;stroke-linecap:butt;stroke-linejoin:miter;opacity:1;font-family:&quot;Anthropic Sans&quot;, -apple-system, BlinkMacSystemFont, &quot;Segoe UI&quot;, sans-serif;font-size:16px;font-weight:400;text-anchor:start;dominant-baseline:auto"/>
<line x1="640" y1="32" x2="649" y2="36" stroke-width="1.1" style="fill:none;stroke:rgb(107, 79, 16);color:rgb(0, 0, 0);stroke-width:0.8px;stroke-linecap:butt;stroke-linejoin:miter;opacity:1;font-family:&quot;Anthropic Sans&quot;, -apple-system, BlinkMacSystemFont, &quot;Segoe UI&quot;, sans-serif;font-size:16px;font-weight:400;text-anchor:start;dominant-baseline:auto"/>
<line x1="640" y1="28" x2="646" y2="18" stroke-width="0.7" style="fill:none;stroke:rgb(107, 79, 16);color:rgb(0, 0, 0);stroke-width:0.8px;stroke-linecap:butt;stroke-linejoin:miter;opacity:1;font-family:&quot;Anthropic Sans&quot;, -apple-system, BlinkMacSystemFont, &quot;Segoe UI&quot;, sans-serif;font-size:16px;font-weight:400;text-anchor:start;dominant-baseline:auto"/>
<line x1="640" y1="31" x2="652" y2="34" stroke-width="0.6" style="fill:none;stroke:rgb(107, 79, 16);color:rgb(0, 0, 0);stroke-width:0.8px;stroke-linecap:butt;stroke-linejoin:miter;opacity:1;font-family:&quot;Anthropic Sans&quot;, -apple-system, BlinkMacSystemFont, &quot;Segoe UI&quot;, sans-serif;font-size:16px;font-weight:400;text-anchor:start;dominant-baseline:auto"/>
</svg>